<svg xmlns="http://www.w3.org/2000/svg" xmlns:xlink="http://www.w3.org/1999/xlink" width="38" height="38" viewBox="0 0 38 38">
  <defs>
    <clipPath id="clip-euro-icon2">
      <rect width="38" height="38"/>
    </clipPath>
  </defs>
  <g id="euro-icon2" clip-path="url(#clip-euro-icon2)">
    <path id="euro_symbol_FILL0_wght400_GRAD0_opsz48" d="M30.1,42a17.3,17.3,0,0,1-10.65-3.4,15.861,15.861,0,0,1-6-8.95H7.5a1.5,1.5,0,1,1,0-3h5.25q-.1-.6-.15-1.325T12.55,24q0-.6.05-1.325t.15-1.325H7.5a1.5,1.5,0,1,1,0-3h5.95A16.294,16.294,0,0,1,19.525,9.3,17.328,17.328,0,0,1,30.1,6a18.661,18.661,0,0,1,5.625.825A15.991,15.991,0,0,1,40.6,9.35a1.515,1.515,0,0,1,.625,1.225,1.8,1.8,0,0,1-1.725,1.85,2.153,2.153,0,0,1-1.3-.375,12.971,12.971,0,0,0-3.825-1.875A14.742,14.742,0,0,0,30.1,9.55a14.057,14.057,0,0,0-8.175,2.325A11.935,11.935,0,0,0,17.25,18.35h11.4a1.5,1.5,0,1,1,0,3H16.35a7.641,7.641,0,0,0-.2,1.325Q16.1,23.4,16.1,24t.05,1.325a7.641,7.641,0,0,0,.2,1.325h12.3a1.5,1.5,0,1,1,0,3H17.25a11.229,11.229,0,0,0,4.8,6.525A14.6,14.6,0,0,0,30.1,38.45a15.251,15.251,0,0,0,4.325-.625A12.232,12.232,0,0,0,38.3,35.9a1.908,1.908,0,0,1,1.225-.375A1.616,1.616,0,0,1,40.65,36a1.753,1.753,0,0,1,.55,1.4,1.564,1.564,0,0,1-.7,1.25,18.207,18.207,0,0,1-4.975,2.525A17.672,17.672,0,0,1,30.1,42Z" transform="translate(-5 -5)" fill="#fff"/>
  </g>
</svg>
