<svg xmlns="http://www.w3.org/2000/svg" xmlns:xlink="http://www.w3.org/1999/xlink" width="38" height="38" viewBox="0 0 38 38">
  <defs>
    <clipPath id="clip-insolvency-icon-blue">
      <rect width="38" height="38"/>
    </clipPath>
  </defs>
  <g id="insolvency-icon-blue" clip-path="url(#clip-insolvency-icon-blue)">
    <path id="Differenzmenge_1" data-name="Differenzmenge 1" d="M562.64-1324.72a13,13,0,0,1-7.968-2.543,11.921,11.921,0,0,1-4.488-6.7h-4.451a1.1,1.1,0,0,1-.8-.318,1.1,1.1,0,0,1-.318-.8,1.094,1.094,0,0,1,.318-.8,1.1,1.1,0,0,1,.8-.319h3.928c-.05-.3-.088-.639-.112-.991s-.037-.7-.037-.992.012-.626.037-.991.063-.69.112-.991h-3.928a1.1,1.1,0,0,1-.8-.319,1.094,1.094,0,0,1-.318-.8,1.1,1.1,0,0,1,.318-.8,1.1,1.1,0,0,1,.8-.318h4.39l2.245,2.245h-.013a5.7,5.7,0,0,0-.15.991c-.024.364-.037.7-.037.991s.012.627.037.992a5.684,5.684,0,0,0,.15.991h3.978l2.245,2.245h-5.549a8.434,8.434,0,0,0,3.591,4.882,10.966,10.966,0,0,0,6.022,1.7,11.424,11.424,0,0,0,2.288-.231l2.144,2.144c-.1.037-.24.083-.373.126A13.287,13.287,0,0,1,562.64-1324.72Zm-1.085-15.448h-.68l-2.245-2.245h2.924a1.1,1.1,0,0,1,.8.318,1.1,1.1,0,0,1,.318.8,1.094,1.094,0,0,1-.318.8A1.1,1.1,0,0,1,561.555-1340.168Zm-6.5-5.821h0l-1.854-1.854a12.066,12.066,0,0,1,1.53-1.339,13.019,13.019,0,0,1,7.911-2.469,14.02,14.02,0,0,1,4.208.617,12.039,12.039,0,0,1,3.648,1.889,1.142,1.142,0,0,1,.467.917,1.292,1.292,0,0,1-.392.991,1.3,1.3,0,0,1-.9.393h-.058a1.625,1.625,0,0,1-.914-.282,9.764,9.764,0,0,0-2.862-1.4,11.1,11.1,0,0,0-3.2-.467,10.564,10.564,0,0,0-6.116,1.739,8.875,8.875,0,0,0-1.469,1.267Z" transform="translate(-540.787 1356.002)" fill="#3f9cfa"/>
    <line id="Linie_1" data-name="Linie 1" x2="26.75" y2="26.575" transform="translate(4.75 4.925)" fill="none" stroke="#3f9cfa" stroke-linecap="round" stroke-width="3"/>
  </g>
</svg>
